<svg xmlns="http://www.w3.org/2000/svg" xmlns:xlink="http://www.w3.org/1999/xlink" id="Layer_1_1588194074809" width="30" height="30" x=".0rem" y=".0rem" overflow="visible" preserveAspectRatio="none" version="1.2" viewBox="0 0 32 32" xml:space="preserve"><g transform="translate(1, 1)"><style type="text/css">.st0_1588194074809{stroke-linecap:round;stroke-linejoin:round}.st0_1588194074809,.st2_1588194074809{stroke-miterlimit:10}</style><polygon points="15 2.5 3 2.6 3 27.6 15 27.5" class="st0_1588194074809" vector-effect="non-scaling-stroke"/><rect width="2" height="2" x="10" y="5.5" class="st1_1588194074809" vector-effect="non-scaling-stroke"/><rect width="2" height="2" x="10" y="9.5" class="st1_1588194074809" vector-effect="non-scaling-stroke"/><rect width="2" height="2" x="10" y="13.5" class="st1_1588194074809" vector-effect="non-scaling-stroke"/><rect width="2" height="2" x="6" y="5.5" class="st1_1588194074809" vector-effect="non-scaling-stroke"/><rect width="2" height="2" x="6" y="9.5" class="st1_1588194074809" vector-effect="non-scaling-stroke"/><rect width="2" height="2" x="6" y="13.5" class="st1_1588194074809" vector-effect="non-scaling-stroke"/><rect width="2" height="2" x="10" y="17.4" class="st1_1588194074809" vector-effect="non-scaling-stroke"/><rect width="2" height="2" x="6" y="17.4" class="st1_1588194074809" vector-effect="non-scaling-stroke"/><polyline points="11.5 27.7 11.5 21.4 6.5 21.4 6.5 27.7" class="st2_1588194074809" vector-effect="non-scaling-stroke"/><polygon points="27 6.5 15 6.5 15 27.6 27 27.5" class="st0_1588194074809" vector-effect="non-scaling-stroke"/><rect width="2" height="2" x="22" y="9.5" class="st1_1588194074809" vector-effect="non-scaling-stroke"/><rect width="2" height="2" x="22" y="13.5" class="st1_1588194074809" vector-effect="non-scaling-stroke"/><rect width="2" height="2" x="18" y="9.5" class="st1_1588194074809" vector-effect="non-scaling-stroke"/><rect width="2" height="2" x="18" y="13.5" class="st1_1588194074809" vector-effect="non-scaling-stroke"/><rect width="2" height="2" x="22" y="17.4" class="st1_1588194074809" vector-effect="non-scaling-stroke"/><rect width="2" height="2" x="18" y="17.4" class="st1_1588194074809" vector-effect="non-scaling-stroke"/><g><line x1="15" x2="27" y1="22.4" y2="22.4" class="st2_1588194074809" vector-effect="non-scaling-stroke"/></g></g></svg>